<svg xmlns="http://www.w3.org/2000/svg" viewBox="0 0 100 100">
  <defs>
    <radialGradient id="bg" cx="60%" cy="40%" r="60%">
      <stop offset="0%" stop-color="#0e0920" />
      <stop offset="100%" stop-color="#020108" />
    </radialGradient>
    <filter id="gg" x="-300%" y="-300%" width="700%" height="700%">
      <feGaussianBlur stdDeviation="2.2" />
    </filter>
    <filter id="rg" x="-400%" y="-400%" width="900%" height="900%">
      <feGaussianBlur stdDeviation="3.5" />
    </filter>
    <filter id="spf" x="-600%" y="-600%" width="1300%" height="1300%">
      <feGaussianBlur stdDeviation="1.0" />
    </filter>
    <filter id="spf" x="-600%" y="-600%" width="1300%" height="1300%">
      <feGaussianBlur stdDeviation="1.0"/>
    </filter>
  </defs>
  <g filter="url(#spf)">
    <g stroke="#FFD060" stroke-width="0.5" opacity="0.9" stroke-linecap="round">
      <line x1="31.42" y1="71.12" x2="40.42" y2="71.12" />
      <line x1="35.92" y1="66.62" x2="35.92" y2="75.62" />
      <line x1="34.15" y1="69.35" x2="37.69" y2="72.89" />
      <line x1="37.69" y1="69.35" x2="34.15" y2="72.89" />
    </g>
    <g stroke="#FFD060" stroke-width="0.5" opacity="0.9" stroke-linecap="round">
      <line x1="8.10" y1="72.33" x2="17.10" y2="72.33" />
      <line x1="12.60" y1="67.83" x2="12.60" y2="76.83" />
      <line x1="10.83" y1="70.56" x2="14.37" y2="74.10" />
      <line x1="14.37" y1="70.56" x2="10.83" y2="74.10" />
    </g>
    <g stroke="#FFD060" stroke-width="0.5" opacity="0.9" stroke-linecap="round">
      <line x1="9.09" y1="67.93" x2="18.09" y2="67.93" />
      <line x1="13.59" y1="63.43" x2="13.59" y2="72.43" />
      <line x1="11.82" y1="66.16" x2="15.36" y2="69.70" />
      <line x1="15.36" y1="66.16" x2="11.82" y2="69.70" />
    </g>
    <g stroke="#FFD060" stroke-width="0.5" opacity="0.9" stroke-linecap="round">
      <line x1="26.47" y1="49.34" x2="35.47" y2="49.34" />
      <line x1="30.97" y1="44.84" x2="30.97" y2="53.84" />
      <line x1="29.20" y1="47.57" x2="32.74" y2="51.11" />
      <line x1="32.74" y1="47.57" x2="29.20" y2="51.11" />
    </g>
    <g stroke="#FFD060" stroke-width="0.5" opacity="0.9" stroke-linecap="round">
      <line x1="47.81" y1="44.39" x2="56.81" y2="44.39" />
      <line x1="52.31" y1="39.89" x2="52.31" y2="48.89" />
      <line x1="50.54" y1="42.62" x2="54.08" y2="46.16" />
      <line x1="54.08" y1="42.62" x2="50.54" y2="46.16" />
    </g>
    <g stroke="#FFD060" stroke-width="0.5" opacity="0.9" stroke-linecap="round">
      <line x1="53.42" y1="29.65" x2="62.42" y2="29.65" />
      <line x1="57.92" y1="25.15" x2="57.92" y2="34.15" />
      <line x1="56.15" y1="27.88" x2="59.69" y2="31.42" />
      <line x1="59.69" y1="27.88" x2="56.15" y2="31.42" />
    </g>
    <g stroke="#FFD060" stroke-width="0.5" opacity="0.9" stroke-linecap="round">
      <line x1="67.94" y1="22.50" x2="76.94" y2="22.50" />
      <line x1="72.44" y1="18.00" x2="72.44" y2="27.00" />
      <line x1="70.67" y1="20.73" x2="74.21" y2="24.27" />
      <line x1="74.21" y1="20.73" x2="70.67" y2="24.27" />
    </g>
    <g stroke="#FFD060" stroke-width="0.5" opacity="0.9" stroke-linecap="round">
      <line x1="76.41" y1="30.64" x2="85.41" y2="30.64" />
      <line x1="80.91" y1="26.14" x2="80.91" y2="35.14" />
      <line x1="79.14" y1="28.87" x2="82.68" y2="32.41" />
      <line x1="82.68" y1="28.87" x2="79.14" y2="32.41" />
    </g>
    <g stroke="#FFD060" stroke-width="0.5" opacity="0.9" stroke-linecap="round">
      <line x1="60.90" y1="51.43" x2="69.90" y2="51.43" />
      <line x1="65.40" y1="46.93" x2="65.40" y2="55.93" />
      <line x1="63.63" y1="49.66" x2="67.17" y2="53.20" />
      <line x1="67.17" y1="49.66" x2="63.63" y2="53.20" />
    </g>
    <g stroke="#FFD060" stroke-width="0.5" opacity="0.9" stroke-linecap="round">
      <line x1="53.42" y1="71.12" x2="62.42" y2="71.12" />
      <line x1="57.92" y1="66.62" x2="57.92" y2="75.62" />
      <line x1="56.15" y1="69.35" x2="59.69" y2="72.89" />
      <line x1="59.69" y1="69.35" x2="56.15" y2="72.89" />
    </g>
    <g stroke="#7DD8FF" stroke-width="0.7" opacity="0.95" stroke-linecap="round">
      <line x1="66.32" y1="71.23" x2="80.32" y2="71.23" />
      <line x1="73.32" y1="64.23" x2="73.32" y2="78.23" />
      <line x1="70.49" y1="68.40" x2="76.15" y2="74.06" />
      <line x1="76.15" y1="68.40" x2="70.49" y2="74.06" />
    </g>
  </g>
  <!-- diffraction spikes -->
  <g filter="url(#spf)" stroke-linecap="round">
    <g stroke="#FFD060" stroke-width="0.5" opacity="0.9">
      <line x1="31.42" y1="71.12" x2="40.42" y2="71.12"/>
      <line x1="35.92" y1="66.62" x2="35.92" y2="75.62"/>
      <line x1="34.15" y1="69.35" x2="37.69" y2="72.89"/>
      <line x1="37.69" y1="69.35" x2="34.15" y2="72.89"/>
      <line x1="8.10" y1="72.33" x2="17.10" y2="72.33"/>
      <line x1="12.60" y1="67.83" x2="12.60" y2="76.83"/>
      <line x1="10.83" y1="70.56" x2="14.37" y2="74.10"/>
      <line x1="14.37" y1="70.56" x2="10.83" y2="74.10"/>
      <line x1="9.09" y1="67.93" x2="18.09" y2="67.93"/>
      <line x1="13.59" y1="63.43" x2="13.59" y2="72.43"/>
      <line x1="11.82" y1="66.16" x2="15.36" y2="69.70"/>
      <line x1="15.36" y1="66.16" x2="11.82" y2="69.70"/>
      <line x1="26.47" y1="49.34" x2="35.47" y2="49.34"/>
      <line x1="30.97" y1="44.84" x2="30.97" y2="53.84"/>
      <line x1="29.20" y1="47.57" x2="32.74" y2="51.11"/>
      <line x1="32.74" y1="47.57" x2="29.20" y2="51.11"/>
      <line x1="47.81" y1="44.39" x2="56.81" y2="44.39"/>
      <line x1="52.31" y1="39.89" x2="52.31" y2="48.89"/>
      <line x1="50.54" y1="42.62" x2="54.08" y2="46.16"/>
      <line x1="54.08" y1="42.62" x2="50.54" y2="46.16"/>
      <line x1="53.42" y1="29.65" x2="62.42" y2="29.65"/>
      <line x1="57.92" y1="25.15" x2="57.92" y2="34.15"/>
      <line x1="56.15" y1="27.88" x2="59.69" y2="31.42"/>
      <line x1="59.69" y1="27.88" x2="56.15" y2="31.42"/>
      <line x1="67.94" y1="22.50" x2="76.94" y2="22.50"/>
      <line x1="72.44" y1="18.00" x2="72.44" y2="27.00"/>
      <line x1="70.67" y1="20.73" x2="74.21" y2="24.27"/>
      <line x1="74.21" y1="20.73" x2="70.67" y2="24.27"/>
      <line x1="76.41" y1="30.64" x2="85.41" y2="30.64"/>
      <line x1="80.91" y1="26.14" x2="80.91" y2="35.14"/>
      <line x1="79.14" y1="28.87" x2="82.68" y2="32.41"/>
      <line x1="82.68" y1="28.87" x2="79.14" y2="32.41"/>
      <line x1="60.90" y1="51.43" x2="69.90" y2="51.43"/>
      <line x1="65.40" y1="46.93" x2="65.40" y2="55.93"/>
      <line x1="63.63" y1="49.66" x2="67.17" y2="53.20"/>
      <line x1="67.17" y1="49.66" x2="63.63" y2="53.20"/>
      <line x1="53.42" y1="71.12" x2="62.42" y2="71.12"/>
      <line x1="57.92" y1="66.62" x2="57.92" y2="75.62"/>
      <line x1="56.15" y1="69.35" x2="59.69" y2="72.89"/>
      <line x1="59.69" y1="69.35" x2="56.15" y2="72.89"/>
    </g>
    <g stroke="#7DD8FF" stroke-width="0.7" opacity="0.95">
      <line x1="66.32" y1="71.23" x2="80.32" y2="71.23"/>
      <line x1="73.32" y1="64.23" x2="73.32" y2="78.23"/>
      <line x1="70.49" y1="68.40" x2="76.15" y2="74.06"/>
      <line x1="76.15" y1="68.40" x2="70.49" y2="74.06"/>
    </g>
  </g>
  <g stroke="#B88800" stroke-width="0.75" stroke-linecap="round" opacity="0.75">
    <line x1="12.6" y1="72.33" x2="13.59" y2="67.93" />
    <line x1="13.59" y1="67.93" x2="30.97" y2="49.34" />
    <line x1="30.97" y1="49.34" x2="52.31" y2="44.39" />
    <line x1="52.31" y1="44.39" x2="57.92" y2="29.65" />
    <line x1="57.92" y1="29.65" x2="72.44" y2="22.5" />
    <line x1="72.44" y1="22.5" x2="80.91" y2="30.64" />
    <line x1="52.31" y1="44.39" x2="65.4" y2="51.43" />
    <line x1="65.4" y1="51.43" x2="73.32" y2="71.23" />
    <line x1="57.92" y1="71.12" x2="73.32" y2="71.23" />
    <line x1="35.92" y1="71.12" x2="57.92" y2="71.12" />
    <line x1="35.92" y1="71.12" x2="12.6" y2="72.33" />
    <path d="M 20.38 71.95 C 20.23 71.87 19.78 71.72 19.46 71.44 C 19.14 71.16 18.62 70.68 18.44 70.26 C 18.26 69.84 18.29 69.33 18.38 68.91 C 18.47 68.49 18.71 68.08 18.99 67.73 C 19.27 67.38 19.76 67.18 20.06 66.82 C 20.36 66.46 20.58 65.99 20.82 65.57 C 21.06 65.14 21.32 64.63 21.51 64.27 C 21.7 63.91 21.87 63.61 21.99 63.4 C 22.11 63.19 22.07 63.26 22.24 63.0 C 22.41 62.74 22.82 62.09 23.0 61.81 C 23.18 61.53 23.18 61.53 23.33 61.31 C 23.48 61.09 23.66 60.81 23.89 60.49 C 24.12 60.17 24.52 59.64 24.71 59.38 C 24.9 59.12 24.85 59.15 25.0 58.96 C 25.15 58.77 25.44 58.44 25.6 58.26 C 25.76 58.08 25.75 58.08 25.93 57.9 C 26.11 57.72 26.49 57.33 26.67 57.15 C 26.85 56.97 26.83 56.97 27.0 56.8 C 27.17 56.63 27.44 56.36 27.68 56.15 C 27.92 55.94 28.27 55.66 28.46 55.51 C 28.65 55.36 28.62 55.43 28.82 55.28 C 29.02 55.13 29.32 54.86 29.68 54.62 C 30.04 54.38 30.59 54.07 30.97 53.86 C 31.35 53.65 31.7 53.49 31.98 53.36 C 32.26 53.23 32.46 53.14 32.67 53.06 C 32.88 52.98 33.0 52.96 33.22 52.9 C 33.44 52.84 33.79 52.75 34.01 52.7 C 34.23 52.65 34.34 52.63 34.56 52.6 C 34.78 52.57 35.04 52.59 35.31 52.54 C 35.58 52.49 35.84 52.38 36.2 52.31 C 36.56 52.24 37.06 52.15 37.49 52.11 C 37.93 52.07 38.37 52.1 38.81 52.09 C 39.25 52.08 39.69 52.08 40.13 52.08 C 40.57 52.08 41.13 52.07 41.45 52.07 C 41.77 52.07 41.79 52.07 42.05 52.07 C 42.31 52.07 42.61 52.06 42.99 52.05 C 43.37 52.04 43.88 52.01 44.33 51.98 C 44.78 51.95 45.22 51.92 45.66 51.88 C 46.1 51.84 46.55 51.78 46.99 51.72 C 47.43 51.66 47.87 51.59 48.31 51.5 C 48.75 51.41 49.3 51.28 49.62 51.2 C 49.93 51.12 49.98 51.1 50.2 51.04 C 50.42 50.98 50.68 50.91 50.91 50.84 C 51.14 50.77 51.39 50.68 51.6 50.6 C 51.81 50.52 51.94 50.48 52.15 50.39 C 52.36 50.3 52.64 50.19 52.87 50.07 C 53.1 49.95 53.34 49.8 53.55 49.67 C 53.76 49.54 53.95 49.43 54.15 49.32 C 54.35 49.21 54.55 49.11 54.77 49.0 C 54.99 48.89 55.23 48.78 55.46 48.68 C 55.69 48.58 55.92 48.51 56.14 48.43 C 56.36 48.35 56.57 48.28 56.8 48.22 C 57.03 48.16 57.28 48.12 57.5 48.08 C 57.72 48.04 57.94 48.02 58.12 48.0 C 58.3 47.98 58.49 47.98 58.56 47.97" fill="none" />
    <path d="M 35.15 52.55 C 35.22 52.55 35.44 52.55 35.59 52.57 C 35.74 52.59 35.9 52.63 36.04 52.68 C 36.18 52.73 36.35 52.84 36.44 52.88 C 36.53 52.92 36.47 52.89 36.56 52.92 C 36.65 52.95 36.84 53.03 36.97 53.08 C 37.1 53.13 37.2 53.17 37.32 53.23 C 37.44 53.29 37.61 53.38 37.71 53.44 C 37.81 53.5 37.81 53.49 37.9 53.56 C 37.99 53.63 38.14 53.76 38.24 53.84 C 38.34 53.92 38.4 53.94 38.49 54.02 C 38.58 54.1 38.7 54.25 38.79 54.35 C 38.88 54.45 38.94 54.53 39.02 54.64 C 39.1 54.75 39.23 54.92 39.28 55.0 C 39.33 55.08 39.3 55.06 39.34 55.15 C 39.38 55.24 39.48 55.41 39.53 55.54 C 39.58 55.67 39.61 55.81 39.65 55.95 C 39.68 56.09 39.72 56.3 39.74 56.37 C 39.76 56.44 39.73 56.32 39.74 56.4 C 39.75 56.48 39.8 56.69 39.82 56.83 C 39.84 56.97 39.83 57.11 39.83 57.26 C 39.83 57.4 39.8 57.63 39.8 57.7 C 39.79 57.77 39.81 57.63 39.8 57.7 C 39.79 57.77 39.78 57.99 39.76 58.14 C 39.74 58.29 39.72 58.43 39.69 58.58 C 39.66 58.73 39.6 58.97 39.59 59.02 C 39.58 59.07 39.66 58.82 39.64 58.86 C 39.62 58.9 39.54 59.09 39.46 59.27 C 39.38 59.45 39.24 59.75 39.16 59.92 C 39.07 60.09 38.98 60.24 38.95 60.3 C 38.92 60.36 38.99 60.25 38.95 60.31 C 38.91 60.37 38.83 60.52 38.72 60.68 C 38.61 60.84 38.45 61.06 38.3 61.24 C 38.15 61.42 37.98 61.59 37.82 61.75 C 37.66 61.91 37.52 62.06 37.34 62.22 C 37.16 62.38 36.92 62.56 36.73 62.69 C 36.54 62.82 36.39 62.91 36.2 63.02 C 36.01 63.13 35.77 63.27 35.61 63.36 C 35.45 63.45 35.3 63.53 35.24 63.56 C 35.18 63.6 35.32 63.54 35.25 63.57 C 35.18 63.6 35.01 63.67 34.84 63.76 C 34.67 63.85 34.4 64.01 34.23 64.1 C 34.06 64.19 33.92 64.24 33.82 64.28 C 33.72 64.32 33.73 64.3 33.63 64.34 C 33.53 64.38 33.34 64.46 33.23 64.51 C 33.11 64.56 33.06 64.59 32.94 64.64 C 32.82 64.69 32.63 64.75 32.52 64.79 C 32.41 64.83 32.37 64.83 32.27 64.89 C 32.17 64.95 32.01 65.09 31.9 65.15 C 31.79 65.22 31.72 65.24 31.6 65.28 C 31.48 65.32 31.32 65.38 31.19 65.42 C 31.06 65.46 30.95 65.5 30.82 65.55 C 30.69 65.6 30.5 65.66 30.4 65.69 C 30.3 65.72 30.3 65.69 30.2 65.72 C 30.1 65.74 29.93 65.8 29.78 65.84 C 29.63 65.88 29.44 65.94 29.28 65.98 C 29.12 66.02 28.94 66.06 28.85 66.09 C 28.76 66.12 28.8 66.12 28.71 66.15 C 28.62 66.18 28.4 66.24 28.29 66.28 C 28.18 66.32 28.14 66.34 28.04 66.39 C 27.94 66.44 27.76 66.52 27.66 66.58 C 27.56 66.64 27.54 66.67 27.44 66.73 C 27.34 66.79 27.13 66.92 27.07 66.96 C 27.01 67.0 27.07 66.96 27.07 66.96" fill="none" />
    <path d="M 27.03 66.98 C 27.09 66.94 27.26 66.84 27.41 66.76 C 27.56 66.68 27.73 66.57 27.94 66.48 C 28.15 66.39 28.45 66.29 28.69 66.2 C 28.93 66.11 29.16 66.03 29.39 65.96 C 29.62 65.89 29.87 65.82 30.09 65.78 C 30.31 65.74 30.5 65.73 30.72 65.71 C 30.94 65.69 31.19 65.67 31.41 65.66 C 31.63 65.65 31.88 65.65 32.06 65.66 C 32.24 65.67 32.35 65.72 32.5 65.73 C 32.65 65.74 32.74 65.71 32.96 65.71 C 33.18 65.71 33.6 65.71 33.82 65.71 C 34.04 65.71 34.13 65.71 34.28 65.71 C 34.43 65.71 34.57 65.71 34.72 65.71 C 34.87 65.71 35.02 65.72 35.16 65.72 C 35.3 65.72 35.44 65.71 35.58 65.72 C 35.72 65.73 35.94 65.75 36.02 65.76 C 36.1 65.77 35.97 65.76 36.05 65.76 C 36.13 65.76 36.35 65.76 36.49 65.77 C 36.63 65.77 36.75 65.78 36.89 65.79 C 37.03 65.8 37.25 65.81 37.33 65.81 C 37.41 65.81 37.29 65.8 37.37 65.81 C 37.45 65.82 37.67 65.83 37.81 65.85 C 37.95 65.87 38.06 65.9 38.2 65.92 C 38.34 65.94 38.55 65.97 38.64 65.98 C 38.73 65.99 38.65 65.98 38.74 66.0 C 38.83 66.02 39.04 66.05 39.17 66.08 C 39.3 66.11 39.38 66.12 39.51 66.16 C 39.64 66.2 39.84 66.28 39.93 66.31 C 40.02 66.34 39.94 66.31 40.03 66.34 C 40.12 66.37 40.32 66.43 40.44 66.49 C 40.56 66.55 40.66 66.61 40.78 66.68 C 40.9 66.75 41.04 66.85 41.14 66.92 C 41.24 66.99 41.27 67.04 41.36 67.12 C 41.45 67.2 41.61 67.34 41.68 67.41 C 41.75 67.48 41.72 67.48 41.78 67.56 C 41.84 67.64 41.96 67.8 42.03 67.91 C 42.1 68.02 42.14 68.12 42.2 68.24 C 42.26 68.36 42.32 68.55 42.36 68.65 C 42.4 68.75 42.4 68.74 42.43 68.84 C 42.46 68.94 42.5 69.15 42.52 69.26 C 42.54 69.37 42.54 69.38 42.55 69.49 C 42.56 69.6 42.58 69.86 42.59 69.93 C 42.6 70.0 42.59 69.93 42.59 69.93" fill="none" />
    <line x1="38.05" y1="66.97" x2="40.37" y2="70.30" />
    <line x1="55.74" y1="58.23" x2="58.65" y2="70.75" />
    <path d="M 67.43 56.91 C 67.48 57.06 67.67 57.59 67.74 57.81 C 67.81 58.03 67.84 58.03 67.87 58.25 C 67.9 58.47 67.93 58.88 67.94 59.13 C 67.95 59.39 67.93 59.52 67.93 59.78 C 67.93 60.04 67.96 60.28 67.95 60.68 C 67.94 61.08 67.9 61.74 67.86 62.21 C 67.82 62.68 67.56 63.23 67.68 63.53 C 67.8 63.83 68.15 63.89 68.56 64.03 C 68.97 64.17 69.73 64.22 70.13 64.36 C 70.53 64.5 70.69 64.79 70.95 64.9 C 71.21 65.01 71.45 64.96 71.68 65.0 C 71.91 65.04 72.12 65.08 72.34 65.13 C 72.56 65.18 72.76 65.24 72.98 65.3 C 73.2 65.36 73.46 65.44 73.68 65.5 C 73.9 65.56 74.09 65.59 74.31 65.64 C 74.53 65.69 74.76 65.73 74.98 65.78 C 75.2 65.83 75.4 65.88 75.62 65.93 C 75.84 65.98 76.07 66.03 76.29 66.07 C 76.51 66.11 76.71 66.14 76.93 66.19 C 77.15 66.24 77.38 66.31 77.6 66.36 C 77.82 66.41 78.02 66.43 78.24 66.47 C 78.46 66.51 78.67 66.58 78.9 66.62 C 79.13 66.66 79.38 66.69 79.6 66.73 C 79.82 66.77 80.0 66.8 80.22 66.84 C 80.44 66.88 80.7 66.92 80.92 66.95 C 81.14 66.98 81.32 67.0 81.54 67.03 C 81.76 67.06 82.03 67.11 82.25 67.14 C 82.47 67.17 82.65 67.18 82.87 67.21 C 83.09 67.24 83.33 67.28 83.55 67.31 C 83.77 67.34 83.97 67.34 84.19 67.37 C 84.41 67.4 84.66 67.46 84.88 67.49 C 85.1 67.52 85.3 67.52 85.52 67.57 C 85.74 67.61 85.98 67.69 86.19 67.76 C 86.4 67.83 86.58 67.88 86.78 67.98 C 86.98 68.08 87.17 68.22 87.36 68.38 C 87.55 68.54 87.78 68.78 87.92 68.95 C 88.06 69.12 88.12 69.22 88.21 69.42 C 88.3 69.62 88.4 69.93 88.45 70.13 C 88.5 70.33 88.52 70.4 88.53 70.61 C 88.54 70.82 88.49 71.27 88.48 71.4 C 88.47 71.53 88.48 71.4 88.48 71.4" fill="none" />
    <line x1="88.39" y1="71.89" x2="74.53" y2="71.36" />
    <line x1="82.57" y1="68.35" x2="84.39" y2="71.56" />
    <line x1="84.95" y1="68.40" x2="86.55" y2="71.34" />
    <line x1="75.49" y1="44.34" x2="73.83" y2="49.47" />
    <path d="M 74.66 49.76 C 74.7 49.82 74.82 50.0 74.91 50.13 C 75.0 50.26 75.13 50.43 75.22 50.56 C 75.31 50.69 75.43 50.86 75.47 50.92 C 75.51 50.98 75.43 50.86 75.47 50.92 C 75.51 50.98 75.62 51.15 75.71 51.29 C 75.79 51.43 75.9 51.6 75.98 51.74 C 76.06 51.88 76.16 52.03 76.2 52.11 C 76.24 52.19 76.2 52.15 76.25 52.24 C 76.3 52.33 76.4 52.52 76.47 52.63 C 76.54 52.74 76.58 52.8 76.64 52.92 C 76.7 53.04 76.78 53.21 76.83 53.32 C 76.88 53.43 76.86 53.45 76.91 53.56 C 76.96 53.67 77.05 53.86 77.1 53.96 C 77.15 54.06 77.16 54.08 77.2 54.19 C 77.24 54.3 77.32 54.49 77.36 54.6 C 77.4 54.71 77.41 54.74 77.45 54.85 C 77.49 54.96 77.57 55.15 77.61 55.26 C 77.65 55.37 77.65 55.39 77.68 55.5 C 77.71 55.61 77.78 55.81 77.81 55.92 C 77.84 56.03 77.85 56.06 77.87 56.18 C 77.89 56.3 77.93 56.51 77.95 56.61 C 77.97 56.71 77.97 56.7 77.99 56.8 C 78.01 56.9 78.05 57.11 78.08 57.23 C 78.1 57.34 78.12 57.38 78.14 57.49 C 78.16 57.6 78.19 57.82 78.2 57.92 C 78.21 58.02 78.2 58.0 78.22 58.11 C 78.24 58.22 78.28 58.42 78.29 58.55 C 78.3 58.68 78.28 58.74 78.29 58.87 C 78.3 59.0 78.32 59.17 78.33 59.3 C 78.33 59.43 78.32 59.52 78.32 59.65 C 78.32 59.78 78.3 60.0 78.3 60.08 C 78.3 60.16 78.29 60.07 78.29 60.16 C 78.29 60.25 78.28 60.47 78.28 60.6 C 78.28 60.73 78.28 60.83 78.27 60.96 C 78.26 61.09 78.24 61.27 78.23 61.38 C 78.22 61.49 78.2 61.51 78.18 61.62 C 78.16 61.73 78.11 61.93 78.1 62.04 C 78.08 62.15 78.1 62.15 78.09 62.26 C 78.08 62.37 78.04 62.58 78.01 62.7 C 77.98 62.82 77.96 62.87 77.93 62.99 C 77.9 63.11 77.86 63.28 77.83 63.42 C 77.8 63.56 77.77 63.7 77.73 63.84 C 77.69 63.98 77.63 64.19 77.61 64.26 C 77.59 64.33 77.62 64.21 77.6 64.28 C 77.58 64.35 77.5 64.59 77.47 64.7 C 77.44 64.81 77.4 64.88 77.39 64.92 C 77.38 64.96 77.39 64.92 77.39 64.92" fill="none" />
    <line x1="68.95" y1="39.55" x2="74.84" y2="54.97" />
    <line x1="74.87" y1="54.79" x2="71.12" y2="54.31" />
    <line x1="70.65" y1="54.14" x2="65.70" y2="45.65" />
    <line x1="66.50" y1="43.87" x2="69.47" y2="44.50" />
    <line x1="66.89" y1="47.19" x2="71.01" y2="47.89" />
    <line x1="68.80" y1="50.73" x2="72.53" y2="51.38" />
    <path d="M 65.55 45.41 C 65.52 45.34 65.37 45.18 65.34 45.02 C 65.31 44.86 65.37 44.64 65.39 44.42 C 65.41 44.2 65.44 43.95 65.47 43.73 C 65.5 43.51 65.55 43.3 65.58 43.08 C 65.61 42.86 65.61 42.65 65.63 42.43 C 65.65 42.21 65.68 41.96 65.69 41.74 C 65.7 41.52 65.66 41.31 65.7 41.09 C 65.74 40.87 65.88 40.64 65.93 40.43 C 65.98 40.22 65.98 39.98 66.0 39.81 C 66.02 39.64 66.05 39.47 66.06 39.38 C 66.07 39.29 66.06 39.38 66.07 39.29 C 66.08 39.2 66.11 38.98 66.13 38.85 C 66.15 38.72 66.18 38.66 66.21 38.54 C 66.24 38.42 66.28 38.21 66.3 38.1 C 66.32 37.99 66.33 37.98 66.35 37.87 C 66.37 37.76 66.39 37.54 66.4 37.43 C 66.42 37.32 66.41 37.32 66.44 37.21 C 66.47 37.1 66.54 36.87 66.57 36.77 C 66.6 36.67 66.57 36.69 66.59 36.59 C 66.61 36.49 66.66 36.3 66.69 36.17 C 66.72 36.04 66.74 35.97 66.77 35.84 C 66.8 35.71 66.83 35.5 66.85 35.41 C 66.87 35.32 66.86 35.39 66.88 35.3 C 66.9 35.21 66.96 35.0 66.99 34.87 C 67.02 34.74 67.05 34.67 67.06 34.54 C 67.07 34.41 67.05 34.18 67.05 34.09 C 67.05 34.0 67.04 34.07 67.08 33.98 C 67.12 33.89 67.23 33.69 67.28 33.57 C 67.33 33.45 67.34 33.36 67.38 33.24 C 67.42 33.12 67.49 32.92 67.52 32.83 C 67.55 32.74 67.54 32.77 67.57 32.67 C 67.6 32.57 67.66 32.39 67.71 32.25 C 67.76 32.11 67.79 31.98 67.84 31.85 C 67.89 31.72 67.97 31.52 68.0 31.44 C 68.03 31.36 68.0 31.45 68.01 31.36 C 68.03 31.27 68.04 31.05 68.09 30.91 C 68.14 30.77 68.2 30.64 68.28 30.52 C 68.36 30.4 68.48 30.26 68.55 30.16 C 68.62 30.06 68.65 30.03 68.71 29.93 C 68.77 29.83 68.84 29.66 68.92 29.54 C 69.0 29.42 69.08 29.3 69.16 29.18 C 69.24 29.06 69.37 28.89 69.42 28.82 C 69.47 28.75 69.43 28.81 69.49 28.74 C 69.55 28.67 69.68 28.51 69.78 28.4 C 69.88 28.29 69.98 28.2 70.09 28.1 C 70.2 28.0 70.36 27.86 70.43 27.81 C 70.5 27.76 70.45 27.83 70.52 27.78 C 70.59 27.73 70.76 27.6 70.87 27.5 C 70.98 27.4 71.04 27.27 71.16 27.18 C 71.27 27.09 71.46 27.02 71.56 26.97 C 71.66 26.92 71.63 26.93 71.73 26.91 C 71.83 26.89 72.04 26.86 72.17 26.84 C 72.3 26.82 72.37 26.82 72.5 26.82 C 72.63 26.82 72.85 26.84 72.94 26.84 C 73.03 26.84 72.95 26.83 73.04 26.84 C 73.13 26.85 73.35 26.9 73.48 26.92 C 73.61 26.94 73.69 26.97 73.82 26.99 C 73.95 27.01 74.18 27.02 74.25 27.03 C 74.32 27.04 74.2 27.02 74.27 27.04 C 74.34 27.06 74.49 27.1 74.65 27.18 C 74.81 27.26 75.02 27.4 75.22 27.52 C 75.42 27.64 75.65 27.75 75.84 27.88 C 76.04 28.01 76.24 28.19 76.39 28.3 C 76.54 28.41 76.69 28.52 76.75 28.56 C 76.81 28.6 76.68 28.51 76.73 28.56 C 76.78 28.61 76.92 28.72 77.05 28.85 C 77.18 28.98 77.34 29.16 77.49 29.34 C 77.64 29.52 77.82 29.76 77.93 29.92 C 78.04 30.08 78.13 30.21 78.17 30.27 C 78.21 30.33 78.17 30.27 78.17 30.27" fill="none" />
    <line x1="71.67" y1="28.32" x2="75.13" y2="30.90" />
    <line x1="72.44" y1="33.51" x2="78.94" y2="31.71" />
    <path d="M 79.21 31.95 C 79.22 32.02 79.22 32.24 79.25 32.39 C 79.28 32.54 79.36 32.68 79.4 32.82 C 79.45 32.96 79.5 33.16 79.52 33.24 C 79.54 33.32 79.49 33.22 79.51 33.3 C 79.53 33.38 79.58 33.58 79.62 33.73 C 79.66 33.88 79.76 34.0 79.77 34.21 C 79.78 34.42 79.69 34.75 79.69 34.97 C 79.69 35.19 79.68 35.34 79.76 35.55 C 79.84 35.76 80.02 36.01 80.15 36.24 C 80.28 36.47 80.45 36.7 80.57 36.92 C 80.69 37.14 80.75 37.31 80.87 37.53 C 80.99 37.75 81.23 38.03 81.29 38.25 C 81.35 38.47 81.37 38.68 81.23 38.87 C 81.09 39.06 80.61 39.22 80.46 39.4 C 80.31 39.58 80.37 39.72 80.31 39.94 C 80.25 40.16 80.23 40.58 80.08 40.74 C 79.93 40.9 79.54 40.88 79.43 40.9 C 79.32 40.92 79.34 40.81 79.41 40.84 C 79.48 40.87 79.74 40.97 79.84 41.09 C 79.94 41.21 79.97 41.49 79.99 41.56 C 80.01 41.63 80.0 41.44 79.98 41.5 C 79.96 41.56 79.9 41.79 79.84 41.93 C 79.78 42.07 79.61 42.14 79.59 42.34 C 79.57 42.54 79.72 42.91 79.74 43.13 C 79.76 43.35 79.77 43.48 79.72 43.66 C 79.67 43.83 79.63 44.1 79.45 44.18 C 79.27 44.26 78.89 44.17 78.66 44.15 C 78.43 44.13 78.31 44.11 78.08 44.06 C 77.85 44.01 77.52 43.92 77.3 43.86 C 77.08 43.8 77.01 43.78 76.79 43.7 C 76.57 43.62 76.2 43.49 75.98 43.4 C 75.76 43.31 75.72 43.27 75.5 43.18 C 75.28 43.09 74.92 42.96 74.69 42.86 C 74.46 42.76 74.3 42.71 74.1 42.6 C 73.9 42.49 73.68 42.32 73.5 42.2 C 73.32 42.08 73.2 42.03 73.03 41.86 C 72.86 41.69 72.65 41.41 72.5 41.19 C 72.35 40.97 72.22 40.72 72.14 40.56 C 72.06 40.4 72.03 40.27 72.01 40.21 C 71.99 40.15 72.01 40.21 72.01 40.21" fill="none" />
    <line x1="79.44" y1="44.18" x2="81.35" y2="49.27" />
    <line x1="81.30" y1="49.19" x2="79.37" y2="49.89" />
    <line x1="79.10" y1="49.84" x2="76.96" y2="44.93" />
    <line x1="78.49" y1="48.24" x2="80.47" y2="47.59" />
    <path d="M 72.31 26.73 C 72.24 26.72 72.06 26.69 71.88 26.68 C 71.7 26.67 71.43 26.67 71.21 26.66 C 70.99 26.65 70.74 26.64 70.56 26.63 C 70.38 26.62 70.18 26.6 70.11 26.59 C 70.04 26.58 70.18 26.59 70.11 26.59 C 70.04 26.59 69.81 26.6 69.67 26.6 C 69.53 26.6 69.41 26.61 69.27 26.62 C 69.13 26.63 68.91 26.65 68.83 26.66 C 68.75 26.67 68.86 26.66 68.79 26.66 C 68.72 26.66 68.51 26.65 68.39 26.66 C 68.27 26.67 68.19 26.7 68.08 26.74 C 67.97 26.78 67.8 26.86 67.71 26.9 C 67.62 26.94 67.65 26.92 67.56 26.96 C 67.47 27.01 67.31 27.1 67.16 27.17 C 67.01 27.24 66.82 27.32 66.67 27.38 C 66.52 27.44 66.36 27.5 66.25 27.55 C 66.14 27.6 66.11 27.62 66.0 27.66 C 65.89 27.7 65.74 27.75 65.6 27.81 C 65.46 27.87 65.29 27.96 65.15 28.03 C 65.01 28.1 64.87 28.18 64.76 28.24 C 64.65 28.3 64.6 28.34 64.49 28.41 C 64.38 28.48 64.22 28.58 64.12 28.64 C 64.02 28.7 63.97 28.72 63.87 28.78 C 63.77 28.84 63.6 28.93 63.5 29.0 C 63.4 29.07 63.37 29.12 63.28 29.2 C 63.19 29.28 63.05 29.4 62.95 29.48 C 62.85 29.56 62.78 29.62 62.68 29.71 C 62.58 29.8 62.46 29.93 62.37 30.02 C 62.28 30.11 62.22 30.15 62.14 30.24 C 62.06 30.33 61.93 30.49 61.87 30.58 C 61.81 30.67 61.82 30.67 61.76 30.76 C 61.7 30.85 61.64 31.02 61.54 31.14 C 61.44 31.26 61.3 31.38 61.19 31.5 C 61.08 31.62 60.94 31.77 60.89 31.83 C 60.84 31.89 60.92 31.79 60.88 31.86 C 60.84 31.93 60.72 32.09 60.63 32.23 C 60.54 32.37 60.4 32.55 60.32 32.69 C 60.24 32.83 60.18 33.01 60.13 33.09 C 60.08 33.18 60.08 33.12 60.03 33.2 C 59.98 33.28 59.88 33.45 59.81 33.58 C 59.74 33.71 59.67 33.84 59.61 33.98 C 59.55 34.12 59.49 34.34 59.46 34.42 C 59.43 34.5 59.46 34.41 59.42 34.48 C 59.38 34.55 59.31 34.7 59.21 34.85 C 59.11 35.0 58.96 35.15 58.84 35.36 C 58.72 35.57 58.6 35.91 58.5 36.12 C 58.4 36.33 58.32 36.46 58.25 36.61 C 58.18 36.76 58.11 36.9 58.07 37.01 C 58.03 37.12 58.03 37.14 57.99 37.25 C 57.95 37.36 57.87 37.54 57.83 37.66 C 57.79 37.78 57.78 37.87 57.74 37.99 C 57.7 38.11 57.61 38.3 57.56 38.39 C 57.51 38.48 57.48 38.42 57.42 38.51 C 57.36 38.6 57.29 38.77 57.22 38.9 C 57.15 39.03 57.06 39.22 57.02 39.29 C 56.98 39.36 57.02 39.25 56.99 39.33 C 56.96 39.41 56.88 39.61 56.83 39.75 C 56.78 39.89 56.72 40.08 56.69 40.16 C 56.66 40.24 56.69 40.15 56.65 40.23 C 56.61 40.31 56.52 40.47 56.47 40.62 C 56.42 40.77 56.37 40.98 56.32 41.13 C 56.27 41.28 56.24 41.39 56.16 41.54 C 56.08 41.69 55.92 41.87 55.84 42.02 C 55.76 42.17 55.71 42.31 55.66 42.42 C 55.61 42.53 55.57 42.58 55.52 42.7 C 55.47 42.82 55.4 43.01 55.37 43.11 C 55.34 43.21 55.36 43.18 55.33 43.28 C 55.3 43.38 55.18 43.58 55.16 43.7 C 55.14 43.82 55.2 43.87 55.18 43.99 C 55.16 44.11 55.07 44.34 55.05 44.41 C 55.03 44.48 55.05 44.41 55.05 44.41" fill="none" />
    <line x1="55.02" y1="44.36" x2="65.10" y2="44.85" />
    <line x1="65.53" y1="40.81" x2="55.94" y2="41.86" />
    <line x1="57.70" y1="38.08" x2="66.28" y2="37.24" />
    <line x1="66.94" y1="33.88" x2="59.11" y2="34.76" />
    <line x1="61.44" y1="31.10" x2="67.62" y2="30.60" />
    <path d="M 71.51 34.54 C 71.47 34.48 71.37 34.32 71.26 34.16 C 71.15 34.0 71.02 33.75 70.83 33.6 C 70.64 33.45 70.35 33.32 70.12 33.28 C 69.89 33.25 69.66 33.26 69.46 33.39 C 69.26 33.52 69.01 33.89 68.89 34.08 C 68.77 34.27 68.76 34.34 68.73 34.55 C 68.7 34.76 68.72 35.12 68.74 35.33 C 68.76 35.54 68.77 35.59 68.82 35.79 C 68.87 35.99 68.96 36.31 69.06 36.51 C 69.16 36.71 69.27 36.79 69.4 36.98 C 69.53 37.17 69.73 37.46 69.86 37.66 C 69.99 37.86 70.03 38.05 70.17 38.21 C 70.32 38.37 70.54 38.57 70.73 38.63 C 70.92 38.69 71.17 38.63 71.32 38.59 C 71.47 38.55 71.58 38.44 71.63 38.41 C 71.68 38.38 71.63 38.41 71.63 38.41" fill="none" />
    <line x1="79.61" y1="33.89" x2="75.84" y2="34.17" />
    <line x1="78.50" y1="34.87" x2="75.87" y2="35.54" />
    <line x1="75.96" y1="35.48" x2="77.78" y2="36.04" />
  </g>
  <g fill="#C89000" filter="url(#gg)">
    <circle cx="35.92" cy="71.12" r="2.6" />
    <circle cx="12.6" cy="72.33" r="2.6" />
    <circle cx="13.59" cy="67.93" r="2.6" />
    <circle cx="30.97" cy="49.34" r="2.6" />
    <circle cx="52.31" cy="44.39" r="2.6" />
    <circle cx="57.92" cy="29.65" r="2.6" />
    <circle cx="72.44" cy="22.5" r="2.6" />
    <circle cx="80.91" cy="30.64" r="2.6" />
    <circle cx="65.4" cy="51.43" r="2.6" />
    <circle cx="57.92" cy="71.12" r="2.6" />
  </g>
  <circle cx="73.32" cy="71.23" r="5" fill="#3AACEE" filter="url(#rg)" />
  <circle cx="73.32" cy="71.23" r="3.2" fill="#7DD8FF" />
  <circle cx="73.32" cy="71.23" r="1.5" fill="#E8F8FF" />
  <g fill="#FFD060">
    <circle cx="35.92" cy="71.12" r="1.8" />
    <circle cx="12.6" cy="72.33" r="1.8" />
    <circle cx="13.59" cy="67.93" r="1.8" />
    <circle cx="30.97" cy="49.34" r="1.8" />
    <circle cx="52.31" cy="44.39" r="1.8" />
    <circle cx="57.92" cy="29.65" r="1.8" />
    <circle cx="72.44" cy="22.5" r="1.8" />
    <circle cx="80.91" cy="30.64" r="1.8" />
    <circle cx="65.4" cy="51.43" r="1.8" />
    <circle cx="57.92" cy="71.12" r="1.8" />
  </g>
</svg>